<?xml version="1.0" encoding="UTF-8" standalone="no"?>
<!-- Created with Inkscape (http://www.inkscape.org/) -->

<svg
   xmlns:dc="http://purl.org/dc/elements/1.1/"
   xmlns:cc="http://creativecommons.org/ns#"
   xmlns:rdf="http://www.w3.org/1999/02/22-rdf-syntax-ns#"
   xmlns:svg="http://www.w3.org/2000/svg"
   xmlns="http://www.w3.org/2000/svg"
   xmlns:sodipodi="http://sodipodi.sourceforge.net/DTD/sodipodi-0.dtd"
   xmlns:inkscape="http://www.inkscape.org/namespaces/inkscape"
   width="286.08737"
   height="291.76001"
   id="svg2"
   version="1.1"
   inkscape:version="0.48.4 r9939"
   sodipodi:docname="Nouveau document 1">
  <defs
     id="defs4" />
  <sodipodi:namedview
     id="base"
     pagecolor="#ffffff"
     bordercolor="#666666"
     borderopacity="1.0"
     inkscape:pageopacity="0.0"
     inkscape:pageshadow="2"
     inkscape:zoom="0.98994949"
     inkscape:cx="171.6915"
     inkscape:cy="115.71081"
     inkscape:document-units="px"
     inkscape:current-layer="layer1"
     showgrid="false"
     showborder="true"
     fit-margin-top="0"
     fit-margin-left="0"
     fit-margin-right="0"
     fit-margin-bottom="0"
     inkscape:window-width="1022"
     inkscape:window-height="719"
     inkscape:window-x="125"
     inkscape:window-y="114"
     inkscape:window-maximized="0" />
  <metadata
     id="metadata7">
    <rdf:RDF>
      <cc:Work
         rdf:about="">
        <dc:format>image/svg+xml</dc:format>
        <dc:type
           rdf:resource="http://purl.org/dc/dcmitype/StillImage" />
        <dc:title></dc:title>
      </cc:Work>
    </rdf:RDF>
  </metadata>
  <g
     inkscape:label="Calque 1"
     inkscape:groupmode="layer"
     id="layer1"
     transform="translate(-181.39777,-385.76418)">
    <path
       style="fill:#144b7a;fill-opacity:1"
       d="m 301.96712,676.50234 c -1.64538,-0.52834 -1.9098,-1.21301 -1.40971,-3.65032 l 0.61553,-3 1.13497,2.75 c 2.12867,5.15775 11.18446,2.79046 11.18446,-2.92375 0,-2.14756 -2.88178,-5.32625 -4.82874,-5.32625 -0.64419,0 -1.17126,-0.45 -1.17126,-1 0,-0.55 1.13614,-1 2.52475,-1 4.49236,0 5.56614,-6.81062 1.42334,-9.02778 -3.16826,-1.6956 -5.57252,-1.08316 -6.97896,1.77778 l -1.3519,2.75 -0.39328,-2.36534 c -0.2163,-1.30093 0.0625,-2.82115 0.61965,-3.37826 1.30688,-1.30688 9.55888,-1.14655 12.14204,0.23592 4.08488,2.18615 3.41356,9.11143 -1.01963,10.51847 -1.96701,0.6243 -1.95008,0.7139 0.49894,2.6403 5.7099,4.49141 1.3626,11.94816 -6.84981,11.74923 -2.26333,-0.0548 -5.0265,-0.39232 -6.14039,-0.75 z m 38.85506,-2.25127 -0.62019,-3.10095 -6.35481,0.68055 c -3.49515,0.37429 -6.35481,0.45116 -6.35481,0.17082 0,-0.28035 3.00961,-5.34984 6.68802,-11.26554 7.51971,-12.09338 7.5602,-12.0894 8.81658,0.86607 0.55886,5.76284 0.93544,6.75 2.57499,6.75 2.4509,0 2.50397,1.61413 0.074,2.24959 -1.43692,0.37576 -1.74443,1.1779 -1.3865,3.61663 0.64389,4.3871 -2.56028,4.4177 -3.43725,0.0328 z m -0.91314,-7.18114 c -0.0458,-0.94485 -0.15834,-3.51791 -0.25,-5.71791 -0.0917,-2.2 -0.50417,-3.99954 -0.91667,-3.99898 -0.61557,8.3e-4 -5.78526,8.23311 -7.1111,11.3238 -0.1986,0.46297 1.6014,0.67734 4,0.47638 3.35626,-0.2812 4.3419,-0.76121 4.27777,-2.08329 z m 19.66852,4.03209 c -1.20538,-3.18935 -0.24431,-4.16154 1.73711,-1.75722 1.6326,1.98104 1.77178,1.98834 5.1777,0.27149 6.22059,-3.13566 5.09379,-10.26427 -1.62244,-10.26427 -1.85766,0 -3.37756,-0.45 -3.37756,-1 0,-0.55 0.65264,-1 1.45031,-1 3.46129,0 3.93289,-7.18937 0.58899,-8.97897 -2.77211,-1.48359 -6.153,0.0222 -7.57612,3.37419 l -1.31815,3.10478 -0.9444,-2.5 c -0.80463,-2.13002 -0.55638,-2.75813 1.67749,-4.2442 8.55538,-5.69143 17.83689,-0.50473 12.56518,7.02169 -1.47921,2.11187 -1.43714,2.22251 0.84501,2.22251 4.3416,0 6.88198,4.78669 5.0601,9.53445 -0.63885,1.66481 -9.60509,6.43654 -12.13063,6.45578 -0.70523,0.005 -1.66489,-1.00273 -2.13259,-2.24023 z m -76.58519,-5.75 c -4.70646,-1.73668 -4.98597,-2.16188 -1.58192,-2.40656 0.80294,-0.0577 2.26561,-2.64451 3.37189,-5.96334 2.14447,-6.43342 1.70053,-7.47564 -3.28997,-7.72378 -1.375,-0.0684 0.2,-0.64022 3.5,-1.27077 3.9595,-0.75656 6.09362,-0.80434 6.27528,-0.14048 0.1514,0.55329 -0.86066,4.34579 -2.24904,8.42778 -2.35741,6.93109 -2.41496,7.54264 -0.87029,9.24947 2.01409,2.22555 1.27546,2.20086 -5.15595,-0.17232 z M 238.0638,638.78059 c -3.53594,-3.53593 -0.84854,-9.42857 4.3,-9.42857 1.50071,0 3.26857,0.54 3.92857,1.2 1.47422,1.47422 1.55376,5.27047 0.16482,7.86574 -1.2745,2.38142 -6.16346,2.59276 -8.39339,0.36283 z m 169.65108,-2.98527 c -3.97407,-2.78355 -1.85897,-10.4433 2.88372,-10.4433 2.89396,0 5.89377,3.05388 5.89377,6 0,2.77161 -2.95936,6 -5.5,6 -0.58024,0 -2.05512,-0.70052 -3.27749,-1.5567 z m -120.20669,-1.40071 c -4.1739,-1.06113 -8.01582,-5.20404 -8.01582,-8.64381 0,-3.18124 4.18463,-7.39878 7.34105,-7.39878 1.94585,0 2.52131,-0.60887 2.87904,-3.04621 0.3899,-2.65654 -0.181,-3.57208 -4.46306,-7.15722 l -4.91015,-4.111 -2.45316,2.64562 c -3.34099,3.60311 -6.63086,4.23187 -11.80445,2.25605 -10.95658,-4.18435 -28.44846,-31.54189 -33.94296,-53.08724 -10.4429,-40.94931 5.18854,-90.5 28.54947,-90.5 4.61515,0 4.80422,-0.11216 4.80422,-2.84996 0,-4.07277 5.14447,-10.62761 11.56377,-14.73398 5.18433,-3.31638 5.47159,-3.71067 4.90473,-6.73229 -0.47878,-2.55208 -0.1275,-3.63964 1.71469,-5.30874 3.98959,-3.61475 10.84589,-4.48129 38.74555,-4.89685 35.46617,-0.52827 42.07126,0.84641 42.07126,8.75608 0,1.30116 -0.4661,2.83184 -1.03578,3.40152 -0.71437,0.71437 0.82307,2.18312 4.95461,4.73326 7.057,4.35583 11.829,9.76986 12.69905,14.4076 0.5657,3.01545 0.8827,3.27233 3.36533,2.72705 7.41878,-1.62944 17.55485,4.42625 23.86305,14.25673 14.39277,22.42918 15.59713,65.69316 2.61614,93.97874 -3.65648,7.96745 -12.55841,22.08106 -18.2868,28.99288 -4.29592,5.18342 -10.71412,9.26796 -14.56312,9.26796 -3.69042,0 -8.33249,-2.54248 -9.109,-4.98903 -0.85492,-2.69362 -1.31354,-2.55311 -6.25348,1.91591 -3.26707,2.95563 -4.25,4.56509 -4.25,6.95899 0,2.75079 0.32969,3.11413 2.82569,3.11413 6.32062,0 9.49829,8.4681 4.82511,12.85833 -5.1352,4.82427 -23.56329,5.1167 -36.86321,0.58496 -4.37163,-1.48956 -4.99185,-1.45842 -11.45474,0.5752 -7.57917,2.38486 -24.46381,3.51216 -30.31703,2.0241 z m 19.55052,-3.10792 c 14.18959,-2.54762 26.62215,-7.40885 39.93366,-15.61441 11.24216,-6.92995 11.03732,-6.69203 8.2022,-9.52715 -1.32371,-1.32371 -2.60929,-3.01439 -2.85685,-3.75707 -0.32855,-0.98565 -1.99965,-0.3591 -6.18767,2.31994 -13.86941,8.87216 -33.91614,15.29796 -50.98261,16.34204 -8.77923,0.53709 -9.98417,0.84409 -11.32107,2.88446 -4.17904,6.37802 7.69344,10.13846 23.21234,7.35219 z m 56.78279,-1.80946 c 1.94975,-1.61815 2.17365,-5.46165 0.40087,-6.88139 -0.6875,-0.5506 -5.075,-1.22951 -9.75,-1.50871 -8.18872,-0.48904 -8.7816,-0.37447 -16.18945,3.12863 -4.2292,1.99994 -7.7167,3.92508 -7.75,4.27808 -0.25533,2.70642 30.13086,3.60407 33.28858,0.98339 z m -50.53595,-14.69607 c 5.12224,-1.2903 12.91559,-3.90347 17.31854,-5.80704 8.03757,-3.47498 18.89716,-9.57698 18.83501,-10.58339 -0.0183,-0.29629 -0.89186,-1.56842 -1.94125,-2.82695 l -1.90799,-2.28823 -4.58456,3.49947 c -9.14084,6.97736 -24.08025,12.73911 -38.12516,14.70389 -8.71236,1.2188 -10.90596,2.41127 -9.78919,5.32152 0.79788,2.07925 5.98201,1.56088 20.1946,-2.01927 z m 42.18682,0.9554 c 0,-1.13555 -0.36724,-1.17214 -1.93532,-0.19286 -1.06442,0.66474 -1.72501,1.5489 -1.46797,1.9648 0.73056,1.18207 3.40329,-0.20949 3.40329,-1.77194 z m -56.81355,-9.85589 c 0.28767,-2.46413 -0.0377,-3.64134 -1.12152,-4.05723 -0.83973,-0.32223 -1.71434,-0.0232 -1.94358,0.66453 -0.22924,0.68773 -1.4276,2.26121 -2.66302,3.49663 -2.66683,2.66683 -2.23015,3.36742 2.09893,3.36742 2.93492,0 3.26026,-0.31118 3.62919,-3.47135 z m 13.23215,0.49217 c 8.56561,-2.19072 17.96806,-6.08511 24.0814,-9.97427 5.82553,-3.70606 6.57929,-4.96726 4.31938,-7.22717 -1.83507,-1.83507 -1.96907,-1.81276 -6.09784,1.01531 -5.96233,4.084 -11.78898,6.9636 -22.72154,11.22924 -5.88383,2.29575 -9.62307,4.32133 -9.82332,5.32138 -0.41644,2.07971 0.86326,2.03416 10.24192,-0.36449 z m 70.38106,0.55939 c 4.17715,-2.19628 10.40314,-9.24578 16.42348,-18.59579 8.84006,-13.72925 12.62298,-22.43205 15.37414,-35.36899 1.62428,-7.63793 3.4585,-25.63705 2.73661,-26.85431 -0.241,-0.40639 -1.58514,0.0126 -2.98697,0.93114 -2.03787,1.33527 -3.11828,1.45506 -5.38991,0.59761 -1.56263,-0.58982 -3.09221,-0.82134 -3.39908,-0.51447 -0.30686,0.30686 -0.56574,2.84543 -0.57529,5.64127 -0.0374,10.9397 -5.75982,30.58325 -11.78106,40.44108 -2.03587,3.33306 -7.63908,11.00084 -12.45158,17.03949 -4.8125,6.03865 -8.75,11.88161 -8.75,12.98436 0,2.25782 3.5054,5.1184 6.27217,5.1184 1.00493,0 3.0423,-0.63891 4.52749,-1.41979 z m -106.08416,-3.64722 c 1.10248,-2.20184 0.86141,-2.7998 -2.59233,-6.43029 -4.70099,-4.94155 -15.98126,-21.2616 -19.35523,-28.0027 -5.67652,-11.34155 -9.76794,-26.69894 -9.76794,-36.66453 l 0,-4.79721 -4.36815,0.59872 c -2.75729,0.37793 -4.62292,0.18649 -5.05901,-0.51913 -1.3956,-2.25812 -3.40665,-1.1849 -3.05841,1.63215 0.18698,1.5125 0.59945,6.35 0.91661,10.75 0.73286,10.16716 4.63371,24.79296 8.89511,33.35127 7.42966,14.92121 19.10487,30.12996 25.0748,32.66378 3.76789,1.5992 7.7775,0.48771 9.31455,-2.58206 z m 14.74803,0.1073 c 1.83639,-2.02918 1.49289,-7.04029 -0.48258,-7.04029 -0.53952,0 -0.98095,-0.675 -0.98095,-1.5 0,-1.74101 1.36056,-1.91259 3.9933,-0.50359 3.12364,1.67173 5.17353,0.16132 4.85164,-3.5748 -0.35564,-4.12786 0.37547,-4.9092 3.18608,-3.40501 1.78306,0.95427 2.49941,0.88154 3.76299,-0.38204 1.29997,-1.29997 1.35601,-2.00988 0.33546,-4.24975 -1.72005,-3.7751 0.0133,-4.92621 2.85809,-1.89805 5.49938,5.85382 15.54757,0.50124 10.76244,-5.73306 -0.6875,-0.89571 -4.47284,-3.23011 -8.41186,-5.18756 -3.93903,-1.95745 -8.35945,-4.82784 -9.82316,-6.37864 -2.04188,-2.16338 -3.3425,-2.71966 -5.58813,-2.39007 -1.99103,0.29222 -2.92685,1.00433 -2.92685,2.22718 0,0.98868 -1.4625,2.9669 -3.25,4.39604 -1.7875,1.42914 -3.62739,3.00426 -4.08864,3.50026 -0.46125,0.496 -1.90329,2.0667 -3.20454,3.49045 -1.37844,1.5082 -3.44578,2.58864 -4.95318,2.58864 -1.423,0 -3.5533,0.9 -4.73401,2 -1.18072,1.1 -2.9619,2 -3.95819,2 -0.99629,0 -1.81144,0.25642 -1.81144,0.56982 0,1.36371 6.25506,9.49631 8.03772,10.45037 3.77192,2.01867 7.98433,-2.24196 5.95869,-6.02689 -1.50237,-2.80722 -1.31784,-2.9933 2.96841,-2.9933 4.43542,0 6.3429,-2.10728 5.34873,-5.90899 -0.54653,-2.08992 -0.35117,-2.18869 3.0623,-1.54832 2.35917,0.44258 4.17164,0.24783 5.13511,-0.55179 1.7623,-1.46258 1.95628,-5.12366 0.35626,-6.72368 -0.62303,-0.62303 -0.83865,-1.89929 -0.47915,-2.83612 0.61049,-1.59093 0.78424,-1.58514 2.63278,0.0878 4.37268,3.95722 1.21811,13.48113 -4.4653,13.48113 -1.31843,0 -2.53137,1.04834 -3.34832,2.89395 -0.70454,1.59168 -2.56496,3.4258 -4.13427,4.07583 -1.92888,0.79897 -3.04273,2.12906 -3.43801,4.10547 -0.36502,1.82511 -1.75833,3.63731 -3.70825,4.82313 l -3.12353,1.89953 5.18821,4.10105 c 2.85352,2.25557 5.52806,4.10104 5.94343,4.10104 0.41537,0 1.55329,-0.88187 2.52872,-1.95971 z m 75.08073,-2.18785 4.49958,-4.14757 -2.92649,-1.7797 c -1.68908,-1.02719 -3.19036,-2.98109 -3.55054,-4.621 -0.40362,-1.83765 -1.64498,-3.29319 -3.51431,-4.12064 -1.67713,-0.74237 -3.3222,-2.51842 -3.91936,-4.23144 -0.77718,-2.22944 -1.65381,-2.95209 -3.58112,-2.95209 -3.35859,0 -6.55202,-3.30332 -6.55202,-6.77749 0,-3.26312 2.498,-7.22251 4.5567,-7.22251 1.84209,0 1.81408,0.50449 -0.19855,3.57615 -1.33188,2.0327 -1.42373,2.98451 -0.48651,5.04148 0.98532,2.16253 1.70523,2.48762 4.89185,2.20903 3.49703,-0.30572 3.7582,-0.13439 4.075,2.67334 0.48331,4.28366 2.0443,5.77344 5.3555,5.1112 2.68623,-0.53724 2.80601,-0.39674 2.80601,3.29136 0,7.79396 5.59038,7.97984 10.75,0.35743 3.87632,-5.72656 3.95343,-6.25999 0.90499,-6.25999 -1.28976,0 -3.1595,-0.9 -4.15499,-2 -0.99549,-1.1 -2.57954,-2 -3.52013,-2 -2.18661,0 -6.97987,-3.74099 -6.97987,-5.44758 0,-0.71633 -1.38129,-1.57868 -3.06952,-1.91632 -2.38915,-0.47783 -3.44201,-1.50073 -4.75,-4.61483 -2.14372,-5.10383 -4.93801,-5.27893 -10.57749,-0.66284 -2.25664,1.84714 -6.44303,4.79692 -9.30308,6.55507 -5.93569,3.64882 -7.17386,6.10374 -4.85979,9.63546 1.94555,2.96928 4.97527,3.15668 7.29191,0.45104 3.16533,-3.69684 5.59561,-2.09875 3.03752,1.9974 -1.01947,1.63244 -0.93097,2.26975 0.51616,3.71689 1.48593,1.48592 2.05726,1.55262 3.82783,0.44687 2.66003,-1.66121 3.38646,-0.87316 3.38646,3.67375 0,3.16302 0.34247,3.70605 2.5,3.96413 4.73076,0.56586 5.09011,0.90909 3.83526,3.66318 -0.9581,2.1028 -0.84655,2.86782 0.66106,4.53372 2.58949,2.86134 3.97422,2.53329 9.04794,-2.1435 z m -56.72858,-2.39991 c 0.17362,-0.13781 -1.2871,-1.47305 -3.24604,-2.96721 l -3.56173,-2.71666 -1.94661,2.36567 c -1.93466,2.35115 -1.93361,2.37571 0.17165,4.00243 1.69183,1.30726 2.73719,1.42836 5.19266,0.60155 1.69091,-0.56937 3.21645,-1.14797 3.39007,-1.28578 z m 8.68704,-3.45357 2.79088,-1.06108 -4.52736,-2.87117 c -2.49004,-1.57914 -4.82251,-3.34875 -5.18327,-3.93246 -0.7045,-1.13991 -4.58297,2.10108 -4.58297,3.8297 0,1.21459 7.09317,6.0965 8.02297,5.52185 0.37889,-0.23416 1.94477,-0.90324 3.47975,-1.48684 z m 11.18134,-5.55396 4.35978,-2.555 -3.02192,-3.02192 c -1.98414,-1.98415 -3.02192,-4.02576 -3.02192,-5.945 0,-2.17617 -0.47216,-2.92308 -1.84782,-2.92308 -1.37679,0 -1.87007,0.78241 -1.93509,3.06932 -0.10446,3.67398 -1.71407,5.81573 -5.59814,7.44885 l -2.88182,1.21172 4.38144,2.62559 c 2.40978,1.44408 4.56689,2.62986 4.79357,2.63506 0.22668,0.005 2.37405,-1.14029 4.77192,-2.54554 z m -59.11112,-12.21031 c 0.59012,-0.40408 1.37725,-1.55803 1.74918,-2.56433 0.52068,-1.40876 1.32297,-1.68758 3.48778,-1.21211 3.08357,0.67726 5.69346,-1.36155 6.34708,-4.95825 0.22681,-1.24807 1.29953,-2.12059 2.85324,-2.32074 2.81653,-0.36283 4.98978,-2.6934 4.98978,-5.35097 0,-2.98674 -6.83955,-12.69396 -10.15021,-14.40596 -3.83298,-1.98212 -11.20676,-2.20088 -13.38035,-0.39697 -5.50205,4.5663 -7.42346,16.83992 -4.05988,25.93382 2.08907,5.64809 4.93415,7.48669 8.16338,5.27551 z m 114.20258,-0.48469 c 1.50262,-1.84069 4.22534,-11.63829 4.2189,-15.1815 -0.009,-5.09999 -1.88373,-10.23849 -4.9209,-13.4898 -5.49856,-5.88623 -14.90521,-3.58414 -20.82215,5.09579 -1.62174,2.37903 -3.22955,5.48028 -3.57291,6.89168 -0.81724,3.35932 1.68775,6.93383 4.85919,6.93383 1.75862,0 2.59835,0.69367 3.05833,2.52638 0.74447,2.96623 3.27846,4.58072 6.05144,3.85557 1.4228,-0.37207 2.29592,0.19829 3.14023,2.05134 0.86407,1.89642 1.92653,2.56671 4.06847,2.56671 1.59444,0 3.35818,-0.5625 3.9194,-1.25 z M 339.2952,565.63555 c 7.99944,-5.83189 11.50558,-10.689 13.81382,-19.13644 1.36695,-5.00264 1.48589,-6.75324 0.55963,-8.23643 -1.66468,-2.66558 -1.4597,-4.98294 0.5722,-6.46869 1.64225,-1.20084 1.60484,-1.4728 -0.61563,-4.47615 -1.90428,-2.57568 -2.42048,-4.66684 -2.65391,-10.75117 -0.27998,-7.29805 -0.37511,-7.55727 -2.81238,-7.66396 -3.26205,-0.1428 -6.66656,-3.24941 -6.66656,-6.08323 0,-3.6982 -2.51528,-5.04451 -6.63878,-3.55344 -3.96209,1.43271 -8.74304,0.13933 -9.81546,-2.65537 -0.50818,-1.32428 -0.95661,-1.2213 -2.98671,0.68587 -1.75439,1.64817 -3.40721,2.18195 -6.2239,2.01002 -8.31655,-0.50764 -9.33515,-0.19225 -9.33515,2.89047 0,3.46204 -2.48041,5.87426 -6.5,6.32133 -1.71517,0.19076 -2.89519,0.86223 -2.75527,1.56784 0.1346,0.6788 0.30519,3.90897 0.37909,7.17816 0.1059,4.6851 -0.31656,6.51723 -1.99473,8.65068 -2.4888,3.16399 -2.75179,5.43698 -0.62909,5.43698 1.76475,0 2.08004,4.52348 0.38817,5.56912 -2.97459,1.8384 3.00512,20.30937 8.0541,24.87863 1.0953,0.99124 5.40099,3.43653 9.5682,5.43399 6.42253,3.0785 8.4966,3.60204 13.61506,3.4368 5.49838,-0.17752 6.63199,-0.62775 12.6773,-5.03501 z m -17.3617,-3.75327 c -1.80031,-1.36312 -1.63281,-1.46004 2.30887,-1.33607 2.81265,0.0885 4.25,0.58554 4.25,1.46974 0,1.78621 -4.13452,1.70194 -6.55887,-0.13367 z m 2.55887,-5.28604 c -9.04006,-0.35573 -11.0627,-0.91726 -10.31571,-2.86387 0.55538,-1.44729 0.70249,-1.44059 1.54815,0.0705 0.86917,1.55312 1.1102,1.55464 3.44957,0.0218 3.54111,-2.32022 8.79122,-2.81234 10.32226,-0.96756 1.33391,1.60726 3.61918,1.99334 4.1624,0.70319 0.18333,-0.43541 1.07674,-0.0295 1.98536,0.90203 1.54309,1.58201 1.44417,1.71665 -1.5,2.04167 -1.73362,0.19138 -6.07703,0.23287 -9.65203,0.0922 z m -2.5,-10.97067 c -4.54561,-1.11087 -5.96658,-4.81884 -2.83628,-7.40111 1.50396,-1.24065 1.55197,-1.16269 0.5,0.81182 -1.55172,2.91252 -1.47608,3.31834 0.58628,3.14551 5.66112,-0.47442 12.76792,1.09831 11.22104,2.4832 -0.87677,0.78495 -7.45828,1.45247 -9.47104,0.96058 z m -7.5,-14.13488 c 0,-0.47373 -1.2375,-0.6635 -2.75,-0.42171 -2.1495,0.34362 -2.42246,0.2075 -1.25,-0.62336 1.18421,-0.83919 0.80195,-1.0662 -1.81574,-1.07829 -3.66645,-0.0169 -7.18426,-1.53288 -7.18426,-3.09595 0,-0.55565 1.10455,-2.11481 2.45455,-3.46481 2.53914,-2.53914 7.86232,-3.36889 9.07059,-1.41387 0.35375,0.57237 1.44595,0.78588 2.42712,0.47447 1.30773,-0.41505 2.11785,0.23989 3.03472,2.45342 1.05803,2.55431 0.99775,3.40579 -0.39116,5.52553 -1.60504,2.44961 -3.59582,3.3601 -3.59582,1.64457 z m 1.26443,-3.73644 c 0.80112,-0.80111 -0.24738,-3.40223 -1.37142,-3.40223 -0.49115,0 -0.89301,0.9 -0.89301,2 0,1.94919 1.06067,2.606 2.26443,1.40223 z M 305.49237,525.793 c 0,-0.85746 -0.45,-1.2809 -1,-0.94098 -0.55,0.33992 -1,1.04148 -1,1.55902 0,0.51754 0.45,0.94098 1,0.94098 0.55,0 1,-0.70156 1,-1.55902 z m 30.5,5.79087 c -2.64742,-0.41343 -2.76495,-0.56385 -1,-1.27988 1.89925,-0.77052 1.88665,-0.81494 -0.25,-0.88168 -4.51361,-0.141 -1.90995,-6.36458 3.1991,-7.64687 4.20337,-1.05498 7.79026,-0.008 9.952,2.90461 2.07071,2.79005 2.07283,2.84713 0.15777,4.25 -1.06762,0.78208 -3.45668,1.42197 -5.30902,1.42197 -1.99061,0 -3.11514,0.40894 -2.74985,1 0.33992,0.55 0.25398,0.93258 -0.19098,0.85017 -0.44496,-0.0824 -2.15902,-0.36065 -3.80902,-0.61832 z m 11.5,-4.27982 c 0,-0.4587 -0.45,-1.11211 -1,-1.45203 -0.55,-0.33992 -1,-0.40328 -1,-0.1408 0,0.26247 -0.2751,1.19413 -0.61134,2.07035 -0.44745,1.16604 -0.17937,1.42737 1,0.9748 0.88624,-0.34008 1.61134,-0.99362 1.61134,-1.45232 z m -10,-1.07447 c 0,-1.76626 -0.24988,-1.91507 -1.48899,-0.8867 -1.50499,1.24904 -1.18445,3.00914 0.54801,3.00914 0.51754,0 0.94098,-0.9551 0.94098,-2.12244 z m -29,-9.79056 c -4.79826,-0.5121 -5.11723,-0.67211 -2.5,-1.25405 3.36082,-0.74727 8.24483,-0.0548 9.07379,1.28645 0.29934,0.48433 0.18019,0.80725 -0.26477,0.7176 -0.44496,-0.0896 -3.28402,-0.42714 -6.30902,-0.75 z m 28,-0.50985 c 2.72805,-1.64368 6.37163,-1.88787 9.5,-0.63668 1.40457,0.56175 0.66027,0.76412 -2.5,0.67971 -2.475,-0.0661 -5.625,0.23609 -7,0.67154 l -2.5,0.79171 2.5,-1.50628 z m 59.06663,43.05408 c 3.46389,-9.9323 5.93337,-21.69182 5.93337,-28.25438 0,-4.21148 -0.1116,-4.38749 -2.1053,-3.3205 -1.17958,0.6313 -3.59797,0.8467 -5.5,0.48987 -2.97884,-0.55883 -3.3947,-0.38112 -3.3947,1.45063 0,1.1481 -0.70528,5.50193 -1.56728,9.67516 -1.52258,7.37129 -1.50533,7.73173 0.60506,12.63744 1.68887,3.92589 2.08281,6.45578 1.77006,11.36737 -0.22125,3.47468 -0.0406,5.95592 0.40148,5.51386 0.44207,-0.44207 2.17786,-4.74382 3.85731,-9.55945 z m -136.02897,-8.92799 c 2.04598,-3.92528 2.04919,-4.06899 0.29398,-13.13467 l -1.77463,-9.16595 -5.4004,0.0487 -5.4004,0.0487 0.62881,7.5 c 0.70081,8.35879 1.57696,12.06691 5.43442,23 l 2.64618,7.5 0.75172,-5.91402 c 0.41344,-3.25272 1.68259,-7.69995 2.82032,-9.88274 z m 36.41665,6.54676 c -2.50242,-5.76468 -4.39333,-12.17938 -4.42166,-15 -0.0321,-3.19501 -2.12483,-4.52791 -3.53265,-2.25 -1.23859,2.00408 -3.96776,0.90989 -7.69187,-3.08385 -4.02017,-4.31125 -4.47263,-5.806 -2.73839,-9.04646 0.90805,-1.69671 1.31422,-1.80013 2.68723,-0.68426 1.41544,1.15035 1.51477,1.06473 0.7952,-0.68543 -0.45226,-1.1 -1.33066,-3.38879 -1.952,-5.0862 -1.80581,-4.93322 -3.98653,-6.5976 -7.09558,-5.41554 -4.10024,1.5589 -6.09905,1.21386 -9.4882,-1.63792 -2.34767,-1.97544 -3.42384,-2.35289 -4.27673,-1.5 -2.06508,2.06508 -8.611,1.35923 -11.17527,-1.20504 -1.41827,-1.41827 -3.61315,-2.38076 -5.55505,-2.43597 -1.7657,-0.0502 -4.02046,-0.8244 -5.01058,-1.72045 -0.99011,-0.89604 -2.01369,-1.26235 -2.27461,-0.81402 -1.17999,2.02748 -1.72911,12.17188 -0.79227,14.63598 2.01784,5.30733 8.95743,5.75401 10.56778,0.68022 0.70887,-2.23345 3.50034,-2.75664 3.50034,-0.65605 0,0.73976 0.91363,2.17184 2.03028,3.18239 1.60599,1.4534 2.59663,1.63821 4.74029,0.88433 1.4905,-0.52418 2.87055,-1.84376 3.06678,-2.93239 0.63071,-3.49906 2.00795,-3.9733 4.56433,-1.57171 2.75785,2.59087 5.94381,2.18384 7.63456,-0.97535 2.09436,-3.91335 3.4591,-2.13208 3.61771,4.72187 0.0847,3.65904 0.45763,9.08335 0.82879,12.05403 0.58258,4.66277 1.04006,5.5333 3.34605,6.36716 5.47307,1.9791 7.26122,3.38984 10.30085,8.12668 2.97709,4.63939 6.29846,7.79798 8.19986,7.79798 0.48646,0 0.54263,-0.7875 0.12481,-1.75 z m 59.66162,0.5 c 0.82401,-0.6875 2.80421,-3.05 4.40044,-5.25 3.64669,-5.02602 4.97154,-6.14307 10.17552,-8.57955 4.77577,-2.236 5.30395,-3.94893 5.6627,-18.36478 0.12931,-5.19611 0.61642,-8.04601 1.42108,-8.31423 0.67338,-0.22446 1.22433,0.0794 1.22433,0.67523 0,0.59583 0.88979,1.97312 1.97732,3.06065 2.0761,2.0761 4.18749,1.86311 7.20967,-0.72728 1.98908,-1.7049 3.81301,-0.88638 3.81301,1.71115 0,1.92551 4.45339,4.09298 6.77104,3.29548 0.69907,-0.24055 1.99178,-1.83111 2.87268,-3.53458 l 1.60163,-3.09723 2.62733,3.19659 c 3.29935,4.01421 7.34249,4.30599 9.70499,0.70036 1.29036,-1.96935 1.47706,-3.76596 0.90926,-8.75 -0.8866,-7.78248 -1.10787,-8.15072 -3.77508,-6.28253 -1.18627,0.83089 -3.45427,1.51072 -5.04,1.51072 -1.61639,0 -4.18852,1.09841 -5.85422,2.5 -3.17264,2.6696 -6.69444,3.17148 -9.96656,1.4203 -1.56409,-0.83708 -2.41722,-0.71791 -3.79647,0.53028 -2.82263,2.55445 -7.30599,3.45555 -10.56499,2.12344 -2.50463,-1.02377 -3.1549,-0.90972 -4.93709,0.86591 -1.12888,1.12474 -2.55424,3.39837 -3.16746,5.05252 -0.61322,1.65415 -1.45082,3.80015 -1.86134,4.76889 -0.58731,1.38593 -0.38145,1.62129 0.96586,1.10428 1.90201,-0.72987 3.47104,1.06673 3.49511,4.00203 0.008,1.0272 -1.7706,3.65355 -3.95338,5.83633 -3.43374,3.43375 -4.37727,3.87894 -7,3.3029 -2.76957,-0.6083 -3.03131,-0.44091 -3.03131,1.93865 0,2.23426 -1.92467,8.57688 -4.49242,14.80447 -0.8416,2.04114 0.46176,2.29099 2.60835,0.5 z m -84.38786,-15.75 c 0.29987,0 -0.71385,-11.77314 -1.24853,-14.5 -0.31482,-1.60562 -1.18954,-2 -4.43585,-2 -4.59688,0 -4.53662,-0.19096 -2.9719,9.41809 1.53571,9.43088 1.33299,9.11301 5.1192,8.02713 1.8127,-0.51987 3.40438,-0.94522 3.53708,-0.94522 z m 114.96973,-5.01263 c 2.04247,-10.96108 1.92085,-11.50501 -2.59892,-11.62352 l -3.90111,-0.1023 -0.65176,5.61923 c -0.35847,3.09057 -0.89611,7.04477 -1.19477,8.7871 -0.46819,2.73139 -0.21977,3.23071 1.80287,3.62379 4.75949,0.92496 5.29224,0.41169 6.54369,-6.3043 z m -100.32682,-2.88246 c -0.45052,-2.25261 -1.07556,-3.04852 -2.08873,-2.65972 -0.7952,0.30514 -1.8873,0.55481 -2.42689,0.55481 -0.53959,0 0.28472,1.29853 1.83179,2.88562 1.54707,1.58709 2.92847,2.78397 3.06979,2.65972 0.14132,-0.12424 -0.0324,-1.67244 -0.38596,-3.44043 z m 73.70738,0.74866 c 1.55055,-2.89721 0.57167,-10.91029 -1.47255,-12.05429 -0.88319,-0.49426 -1.60581,-1.5513 -1.60581,-2.34897 0,-0.79767 -0.45,-1.45031 -1,-1.45031 -1.67939,0 -1.10272,4.32499 1,7.5 2.14137,3.23335 2.61262,7.00335 1,8 -1.27686,0.78914 -1.30094,2.5 -0.0352,2.5 0.53065,0 1.48174,-0.96589 2.11354,-2.14643 z m -67.07836,0.20545 c 0,-0.51754 -0.45,-1.2191 -1,-1.55902 -1.61262,-0.99665 -1.14137,-4.76665 1,-8 2.31283,-3.49226 2.59692,-6.5 0.61394,-6.5 -3.30482,0 -5.86765,10.78891 -3.57876,15.06574 1.07364,2.00612 2.96482,2.6397 2.96482,0.99328 z m 75,-2.47757 c 0,-0.1915 -0.9,-0.58354 -2,-0.8712 -1.49285,-0.39039 -2,-0.0307 -2,1.41855 0,1.63169 0.3192,1.77073 2,0.8712 1.1,-0.5887 2,-1.22705 2,-1.41855 z m -79.18045,-14.40978 c 0.24458,-1.66215 1.0071,-2.17167 3.25,-2.17167 3.31195,0 3.57932,-0.49399 1.43045,-2.64286 -0.825,-0.825 -1.5,-2.36785 -1.5,-3.42857 0,-2.04705 -2.43714,-2.64832 -3.5349,-0.8721 -1.29461,2.09473 -2.19088,12.01855 -1.05164,11.64405 0.5976,-0.19645 1.23034,-1.33443 1.40609,-2.52885 z m 73.08147,-2.80327 c -0.42032,-3.09738 -1.20579,-6.07317 -1.74549,-6.61287 -1.36271,-1.36271 -3.15553,-0.0361 -3.15553,2.33487 0,1.0848 -0.675,2.23139 -1.5,2.54797 -2.37481,0.9113 -1.74549,2.36163 1.02475,2.36163 1.77294,0 2.80779,0.74445 3.47525,2.5 1.66573,4.3812 2.69127,2.69179 1.90102,-3.1316 z m -79.90102,-1.97539 c 0,-0.21615 -0.675,-0.39301 -1.5,-0.39301 -0.825,0 -1.5,0.43588 -1.5,0.96862 0,0.53273 0.675,0.70959 1.5,0.39301 0.825,-0.31659 1.5,-0.75246 1.5,-0.96862 z m 88,1.21398 c 0,-0.21616 -0.69837,-0.661 -1.55194,-0.98855 -0.88992,-0.34149 -1.29132,-0.17385 -0.94098,0.39301 0.58726,0.95021 2.49292,1.40545 2.49292,0.59554 z M 273.8558,510.148 c 1.32697,-1.39279 2.59192,-1.77302 4.39389,-1.32075 l 2.53046,0.6351 -0.53676,-5.91949 c -0.29522,-3.25572 -0.15773,-6.53276 0.30552,-7.28232 0.51414,-0.83189 0.31028,-1.95612 -0.52325,-2.88568 -1.4735,-1.64326 -3.64841,-7.11033 -5.39094,-13.55123 -0.62238,-2.30053 -2.62614,-5.51742 -4.67164,-7.5 -3.15392,-3.0569 -4.20231,-3.47161 -8.77625,-3.47161 -6.28367,0 -11.82561,3.51008 -16.60877,10.51946 -3.72441,5.45784 -3.83847,7.31867 -0.6444,10.51274 1.9176,1.9176 3.09288,2.31097 5.47883,1.83378 2.6011,-0.52022 3.17605,-0.24324 4.00143,1.92768 1.38014,3.63004 4.68236,4.3753 8.12121,1.83284 l 2.81438,-2.08075 1.82143,3.72712 c 2.04783,4.19039 5.95516,5.45055 8.62428,2.78142 3.27066,-3.27066 5.16894,-0.83808 2.04216,2.61697 -2.5032,2.76601 -8.43934,2.42169 -11.3319,-0.6573 -1.93665,-2.06148 -2.95829,-2.38646 -5.9822,-1.90291 -2.97546,0.47579 -4.21481,0.10509 -6.73316,-2.01396 -1.69755,-1.4284 -4.22448,-2.59709 -5.61538,-2.59709 -1.39091,0 -3.85562,-1.11634 -5.47713,-2.48076 l -2.94822,-2.48076 -1.68699,4.41733 c -1.56952,4.10971 -1.57236,4.639 -0.0408,7.60066 1.51927,2.93795 1.94889,3.14274 5.57317,2.65662 3.30386,-0.44314 4.1071,-0.18447 5.06202,1.6301 1.50144,2.85311 2.78333,3.62308 6.06255,3.6415 1.81604,0.0102 3.27413,-0.81979 4.36501,-2.48469 2.19782,-3.3543 4.0275,-3.1527 4.763,0.52481 1.0176,5.08798 6.9405,6.04093 11.00847,1.77117 z m 110.80783,0.54903 c 1.00581,-0.91024 1.82874,-2.23368 1.82874,-2.94098 0,-2.54 2.14697,-2.53749 4.50352,0.005 3.1585,3.40808 6.05689,3.27279 9.52966,-0.44482 2.20499,-2.36045 3.38545,-2.89751 5.30807,-2.41497 3.0381,0.76252 6.30688,-0.86551 7.16476,-3.56843 0.3528,-1.11157 -0.10942,-4.2817 -1.02715,-7.04472 l -1.6686,-5.02368 -2.35738,2.54366 c -2.11118,2.278 -4.58829,3.07739 -8.15065,2.6303 -0.65878,-0.0827 -1.65408,0.70228 -2.21179,1.74437 -1.42139,2.6559 -6.16747,4.44597 -9.00486,3.39635 -1.85005,-0.68438 -2.86224,-0.29686 -5.11889,1.95979 -1.81937,1.81937 -3.86046,2.81285 -5.77898,2.81285 -3.81183,0 -7.75148,-3.08845 -6.86997,-5.38564 0.59357,-1.5468 0.90829,-1.50712 3.55257,0.44787 3.76738,2.78535 6.6626,1.87147 8.28499,-2.61515 1.30504,-3.60904 3.22715,-4.49877 4.20633,-1.94708 0.357,0.93033 1.8796,1.5 4.00916,1.5 2.92082,0 3.59073,-0.45084 4.48601,-3.01907 0.98935,-2.83804 1.28715,-2.98155 4.96633,-2.39322 3.35278,0.53613 4.14777,0.29193 5.54537,-1.70344 2.52388,-3.60333 1.99,-5.926 -2.74993,-11.96376 -7.01716,-8.93852 -15.96515,-11.65816 -22.66369,-6.88838 -3.23687,2.30512 -6.95488,8.65658 -6.95488,11.88125 0,2.43074 -1.87038,6.96867 -3.84834,9.33688 -0.93006,1.11355 -1.59523,4.6774 -1.82902,9.79951 l -0.36742,8.04953 3.3038,-0.6198 c 2.58054,-0.48411 3.71395,-0.16657 5.17738,1.45049 2.25577,2.4926 6.23064,2.68158 8.73486,0.41529 z m -99.18657,-4.59501 c 0.008,-0.4125 -0.43469,-0.75 -0.98469,-0.75 -0.55,0 -0.99311,1.0125 -0.98469,2.25 0.0124,1.81944 0.20082,1.96296 0.98469,0.75 0.53316,-0.825 0.97627,-1.8375 0.98469,-2.25 z m 78.60371,-0.49494 c -1.07549,-1.07549 -1.64645,0.43075 -0.89148,2.35181 0.7082,1.80207 0.76169,1.80519 1.11193,0.0649 0.20237,-1.00555 0.10317,-2.09305 -0.22045,-2.41667 z m -12.5884,-4.55462 c 0,-1.62434 -0.42368,-2.55662 -1,-2.20044 -0.55,0.33992 -1,1.24096 -1,2.00231 0,0.76136 -0.93157,2.03678 -2.07015,2.83427 -1.47436,1.03269 -1.69021,1.57906 -0.75,1.89848 2.30266,0.78229 4.82015,-1.58608 4.82015,-4.53462 z m -49,3.90655 c 0,-0.94863 -2.99338,-1.42672 -3.52699,-0.56332 -0.32508,0.52598 0.33551,0.95633 1.46797,0.95633 1.13246,0 2.05902,-0.17686 2.05902,-0.39301 z m -8.89416,-3.35699 c 0.58462,-1.5125 1.69997,-4.02397 2.47856,-5.58104 0.77858,-1.55707 1.4156,-4.00307 1.4156,-5.43555 0,-2.78792 3.4873,-7.23341 5.67431,-7.23341 0.72913,0 1.32569,0.9 1.32569,2 0,1.1 0.45,2 1,2 0.55,0 1,-1.32071 1,-2.9349 0,-1.6142 0.43886,-4.0892 0.97525,-5.5 0.93342,-2.45509 0.8229,-2.5651 -2.57692,-2.5651 -2.59276,0 -4.34168,0.78951 -6.47525,2.92308 -2.53192,2.53192 -2.92308,3.66936 -2.92308,8.5 0,6.36455 -2.31176,9.83117 -5.92579,8.88608 -1.63102,-0.42653 -2.07421,-0.0761 -2.07421,1.63995 0,3.02596 1.77801,6.05089 3.55662,6.05089 0.81744,0 1.96459,-1.2375 2.54922,-2.75 z m 66.47275,0.29291 c 0.92158,-3.67186 0.10151,-4.97292 -3.24041,-5.14099 -2.71975,-0.13678 -2.97224,0.10392 -2.59447,2.47327 0.71124,4.4609 1.12655,5.12481 3.20585,5.12481 1.30313,0 2.22968,-0.86595 2.62903,-2.45709 z m -26.11694,-5.89121 c 2.39526,-1.75146 1.10074,-3.83096 -1.91384,-3.07434 -1.28129,0.32158 -2.63027,0.0982 -2.99773,-0.49633 -0.83985,-1.3589 -2.55008,-1.41324 -2.55008,-0.081 0,1.19542 3.65915,5 4.80887,5 0.44488,0 1.63863,-0.60673 2.65278,-1.3483 z m 14.31584,-0.2084 c 1.34352,-0.94104 2.22251,-2.60211 2.22251,-4.2 0,-2.0559 -0.26667,-2.37663 -1.2,-1.4433 -1.77375,1.77375 -5.59806,1.45639 -6.62772,-0.55 -0.49394,-0.9625 -1.19516,-3.69418 -1.55825,-6.0704 -0.79724,-5.21734 -2.79683,-8.48623 -6.1162,-9.99864 -2.81364,-1.28198 -5.07695,-0.72014 -5.91693,1.4688 -0.62174,1.62023 0.98263,5.35024 2.30127,5.35024 2.26648,0 5.21509,4.19727 6.03618,8.59234 1.37581,7.36437 5.97949,10.2688 10.85914,6.85096 z m -36.92963,-1.29116 c 1.01633,-1.01633 2.16054,-3.80319 2.54269,-6.19302 0.53005,-3.31476 1.65395,-5.23062 4.7395,-8.07919 4.81389,-4.44415 4.90288,-7.2287 0.24557,-7.68331 -4.30823,-0.42053 -7.93903,3.99355 -8.87347,10.78777 -1.023,7.43807 -3.89509,9.73749 -7.82608,6.26561 -1.93946,-1.71295 -1.96728,-1.67695 -1.31368,1.70029 0.36725,1.89766 1.22345,3.80327 1.90267,4.23469 2.20438,1.40015 6.68954,0.86042 8.5828,-1.03284 z m -24.86317,-4.26259 c 0.008,-0.88575 1.07085,-3.16589 2.36096,-5.06697 3.28771,-4.84471 4.00657,-8.3275 2.11025,-10.22383 -3.43411,-3.43411 -16.12523,-4.80868 -15.06318,-1.63148 0.2818,0.843 1.3962,4.53772 2.47646,8.21048 3.03258,10.31045 8.0491,15.69556 8.11551,8.7118 z m 80.2322,0.002 c 1.46507,-2.25948 3.14328,-6.34403 3.72935,-9.07679 0.58607,-2.73276 1.56212,-5.89643 2.16899,-7.03038 1.07894,-2.01603 0.93458,-2.0509 -6.51162,-1.57303 -5.42108,0.3479 -8.1896,1.00868 -9.60932,2.29351 -2.49128,2.25458 -2.58172,6.11008 -0.17356,7.39889 1.6112,0.86228 3.92469,5.16479 5.56311,10.34594 0.84211,2.66301 1.91749,2.13831 4.83305,-2.35814 z m -43.37402,0.71223 c 0.2541,-1.3383 -0.0752,-1.72892 -1.11959,-1.32814 -0.81376,0.31227 -1.9844,0.0629 -2.60142,-0.55409 -1.52778,-1.52778 -3.60889,0.56657 -2.76033,2.77789 0.88808,2.3143 6.00616,1.60703 6.48134,-0.89566 z m -31.82922,0.64622 c 0.008,-0.4125 0.26591,-1.875 0.57422,-3.25 0.54104,-2.41289 0.50572,-2.43237 -1.01365,-0.55887 -1.77804,2.19245 -2.07611,4.55887 -0.57422,4.55887 0.55,0 1.00614,-0.3375 1.01365,-0.75 z m 66.27176,-2.26658 c -0.28975,-1.10802 -0.92251,-2.25913 -1.40612,-2.55802 -0.99902,-0.61743 -1.22096,3.89959 -0.23981,4.88075 1.16317,1.16317 2.18166,-0.27411 1.64593,-2.32273 z m -9.41586,-4.98342 c 0.95175,0 2.32855,0.5625 3.05956,1.25 1.0944,1.02926 1.21136,0.72023 0.66235,-1.75 -0.72288,-3.2525 -4.79625,-7.5 -7.19254,-7.5 -1.49416,0 -1.39052,3.05677 0.33907,10 0.60967,2.44745 0.63094,2.4527 1.01194,0.25 0.22772,-1.31657 1.10706,-2.25 2.11962,-2.25 z m -16.86955,0.92055 c 0,-1.79027 -0.41721,-1.98782 -3,-1.42055 -2.58279,0.56728 -3,0.36972 -3,-1.42054 0,-1.1437 -0.45,-2.07946 -1,-2.07946 -1.56134,0 -1.1736,3.68355 0.57143,5.42857 2.37666,2.37667 6.42857,2.05646 6.42857,-0.50802 z m -11,-0.92055 c 0,-0.55 -0.45,-1 -1,-1 -0.55,0 -1,0.45 -1,1 0,0.55 0.45,1 1,1 0.55,0 1,-0.45 1,-1 z m -17,-11.9224 c 0.825,-0.43756 1.5,-2.09653 1.5,-3.68659 0,-2.7593 -0.20481,-2.89101 -4.49566,-2.89101 l -4.49566,0 0.31905,-3.71253 c 0.27442,-3.19321 -0.006,-3.78591 -2.00434,-4.23714 -1.27786,-0.28853 -3.22339,-0.4179 -4.32339,-0.28747 -1.69871,0.20142 -1.95148,-0.2616 -1.67791,-3.07353 0.82985,-8.52956 -6.8834,-8.09173 -15.61056,0.88611 -3.87094,3.98213 -4.88507,7.15088 -3.35988,10.4983 1.01136,2.21971 1.68194,2.42674 7.87691,2.43184 8.97729,0.007 13.81747,1.46137 16.37348,4.91856 2.21041,2.98974 2.7523,2.9434 9.89796,-0.84654 z m 49.30118,1.57992 c 1.01518,-2.64552 7.32221,-4.65752 14.59995,-4.65752 5.86381,0 7.46191,-0.36304 9.18553,-2.08666 2.77953,-2.77953 1.87906,-6.26716 -2.90414,-11.24807 -8.61119,-8.96713 -17.1593,-9.22577 -15.48525,-0.46854 0.4722,2.47014 0.2618,2.66834 -2.74195,2.58294 -3.93775,-0.11196 -6.18733,2.44777 -5.29071,6.02015 0.59314,2.36328 0.4614,2.4464 -2.88304,1.81898 -4.0633,-0.76228 -6.12647,0.92117 -5.60833,4.57616 0.24502,1.72844 1.0772,2.38683 3.32676,2.63199 1.65,0.17982 3.4275,0.74232 3.95,1.25 1.3761,1.33706 3.25571,1.13235 3.85118,-0.41943 z m -39.59559,-3.2325 c 4.05563,-2.75225 8.77512,-2.7606 10.82597,-0.0191 0.87322,1.16726 1.4675,1.15051 3.8716,-0.10913 1.56203,-0.81842 4.13533,-1.29794 5.71844,-1.06558 3.78714,0.55583 3.63301,0.1888 -0.8716,-2.07551 -8.9086,-4.47805 -10.68739,-4.60744 -17.77093,-1.29265 -4.88291,2.28499 -6.47907,3.53758 -6.47907,5.08446 0,2.59588 0.13215,2.58121 4.70559,-0.52244 z m 27.29441,-6.42502 c 1.1,-1.1 2.9,-2 4,-2 1.11111,0 2,-0.66667 2,-1.5 0,-0.83333 -0.88889,-1.5 -2,-1.5 -1.1,0 -2,0.46703 -2,1.03785 0,0.57082 -1.2375,0.90832 -2.75,0.75 -2.34236,-0.24518 -2.7969,0.11979 -3.06642,2.46215 -0.37368,3.24756 1.04087,3.52555 3.81642,0.75 z m -30.5,-1.57351 c 0,-1.32919 -0.89324,-2.06157 -2.94856,-2.41758 -2.59246,-0.44905 -2.95478,-0.93333 -3,-4.00982 -0.0477,-3.24809 -0.25745,-3.47707 -2.92342,-3.19212 -2.7995,0.29923 -2.85466,0.21468 -2.18585,-3.35038 0.51772,-2.75972 0.26419,-4.12358 -1.03301,-5.55697 -2.08179,-2.30035 -2.19421,-2.3052 -6.9884,-0.30206 -3.12493,1.30568 -3.52635,1.76384 -2.19713,2.50771 0.8945,0.50059 2.14501,2.48169 2.77892,4.40245 0.76427,2.31577 1.77575,3.49228 3.00242,3.49228 1.94428,0 6.29351,4.70804 5.51415,5.96906 -0.24949,0.40369 1.33164,1.26886 3.51363,1.9226 2.18199,0.65375 3.96725,1.65806 3.96725,2.23181 0,0.57376 0.5625,0.8557 1.25,0.62653 0.6875,-0.22917 1.25,-1.27475 1.25,-2.32351 z m 22.80615,-0.066 c 1.06481,-1.06481 -0.26976,-2.31172 -1.83243,-1.71206 -0.80423,0.30861 -1.21326,0.96395 -0.90896,1.45632 0.6482,1.04881 1.83738,1.15975 2.74139,0.25574 z m -15.50918,-2.5448 c 0.21127,-1.09705 -0.46411,-1.77244 -1.98852,-1.98851 -1.97199,-0.27952 -2.30845,-0.91021 -2.30845,-4.32721 0,-3.3868 -0.34493,-4.04899 -2.25,-4.31955 -2.35702,-0.33475 -2.64187,-1.35611 -1.30535,-4.68045 1.70826,-4.24894 -2.93756,-6.9749 -8.34849,-4.89853 -1.39519,0.53539 -1.40417,0.83454 -0.0818,2.72251 0.8171,1.16657 1.48563,3.11558 1.48563,4.33114 0,1.31466 0.79185,2.46143 1.95441,2.83041 1.07492,0.34117 2.51465,2.16965 3.1994,4.06329 0.68475,1.89364 2.03225,3.69285 2.99444,3.99823 0.9622,0.30539 2.03591,1.45783 2.38604,2.56097 0.74958,2.36175 3.79173,2.15314 4.26268,-0.29229 z m 24.78636,-3.80792 c 5.53964,-0.009 6.55971,-0.47148 5.74078,-2.60557 -0.3422,-0.89176 -2.04631,-1.40077 -4.6811,-1.39821 -4.14631,0.004 -22.71718,2.73682 -23.42789,3.44753 -0.20744,0.20743 0.094,1.25746 0.66979,2.3334 1.03331,1.93076 1.14833,1.93198 8.83102,0.0935 4.28124,-1.02454 10.07157,-1.86631 12.8674,-1.8706 z m 12.41667,-3.11476 c 0,-0.49115 -0.675,-0.89301 -1.5,-0.89301 -0.825,0 -1.5,0.66088 -1.5,1.46862 0,0.89459 0.58629,1.24363 1.5,0.89301 0.825,-0.31659 1.5,-0.97746 1.5,-1.46862 z m -12.5,-3.7058 c 12.10426,-0.63986 13,-0.82502 13,-2.68721 0,-1.85204 -0.77677,-2.02444 -10.5,-2.33031 -10.14806,-0.31925 -25.32456,1.1768 -27.8649,2.74681 -0.95128,0.58793 -0.9733,1.3445 -0.0952,3.27169 l 1.14223,2.50691 5.65894,-1.41034 c 3.1124,-0.77569 11.50893,-1.71959 18.65893,-2.09755 z m -20.6353,-6.72528 c 7.35402,-1.53421 32.10473,-2.24118 35.9323,-1.02636 2.26017,0.71735 4.69251,-1.71754 3.86637,-3.87042 -0.95728,-2.49465 -8.66576,-3.94874 -21.16337,-3.99216 -11.1968,-0.0389 -24.47832,1.55951 -27.26408,3.2812 -0.94799,0.58589 -0.94902,1.44565 -0.005,3.94742 0.66399,1.75912 1.2211,3.19802 1.23802,3.19757 0.0169,-4.5e-4 3.34487,-0.69221 7.39546,-1.53725 z m -22.8647,-5.15437 9.5,-3.45614 -8,0.49877 c -10.663,0.66481 -14.5,2.08175 -14.5,5.35462 0,1.99926 0.35563,2.36181 1.75,1.78403 0.9625,-0.39883 6.025,-2.2804 11.25,-4.18128 z m -94.21211,174.22648 -2.69754,-4.46597 2.70483,0.49711 c 2.09359,0.38478 4.77854,-0.84835 11.8814,-5.45681 7.66292,-4.97184 9.08697,-6.29655 8.63336,-8.03114 -0.88382,-3.37974 0.31854,-2.40222 3.59504,2.92277 1.69209,2.75 2.65725,5 2.14479,5 -0.51245,0 -1.22881,-0.48068 -1.5919,-1.06817 -0.89263,-1.4443 -2.47435,-0.73122 -12.72504,5.73675 -7.13459,4.50177 -8.68443,5.90857 -8.19794,7.44133 1.08165,3.408 -0.99484,1.98051 -3.747,-2.57587 z m 237.96211,-3.92609 c -2.60597,-1.97821 -2.12206,-2.84858 1.18047,-2.12322 3.2959,0.7239 5.06953,-1.33461 5.06953,-5.8838 0,-4.57365 -2.9203,-4.87871 -10.44782,-1.09139 -6.2233,3.13112 -7.02538,3.30315 -9.91171,2.12591 -5.6995,-2.32465 -6.05754,-8.89873 -0.80482,-14.77754 2.44589,-2.73743 3.06572,-2.98106 4.97901,-1.9571 3.16329,1.69294 2.68166,3.14845 -0.81071,2.44998 -2.66991,-0.53398 -3.14553,-0.24369 -4.3693,2.6668 -3.14839,7.48782 0.92519,9.52442 10.23967,5.11937 7.34214,-3.47228 11.13118,-2.95211 13.09885,1.79826 1.2174,2.93907 -0.052,7.31756 -3.28029,11.31478 -1.6741,2.07283 -2.59587,2.13959 -4.94288,0.35795 z M 195.72101,596.95448 c -0.67575,-1.48311 -1.22864,-3.13824 -1.22864,-3.67807 0,-0.53983 2.7,-5.26719 6,-10.50524 3.3,-5.23806 6,-9.90508 6,-10.37116 0,-0.46607 -3.6,0.52032 -8,2.192 -6.46964,2.45798 -8.00766,3.4431 -8.04004,5.14971 -0.0372,1.96275 -0.1334,1.9355 -1.37536,-0.3897 -0.73443,-1.375 -1.67622,-3.625 -2.09286,-5 -0.73081,-2.41177 -0.68927,-2.4391 1.1771,-0.77444 1.84692,1.64733 2.4717,1.52179 13.78052,-2.76905 6.51523,-2.47203 12.04975,-4.29074 12.29892,-4.04156 0.24917,0.24917 -2.90403,5.77024 -7.00712,12.26904 -4.10309,6.49881 -7.31609,11.98581 -7.14,12.19334 0.1761,0.20753 4.38787,-1.13005 9.3595,-2.9724 6.73942,-2.49744 9.03934,-3.80202 9.03934,-5.12733 0,-2.87167 1.5021,-2.04343 2.79911,1.5434 1.6088,4.44906 1.52469,4.89816 -0.66168,3.53275 -2.86366,-1.78838 -22.37811,5.92971 -23.13867,9.15149 -0.53864,2.28173 -0.54794,2.27962 -1.77012,-0.40278 z m 260.59091,-12.77413 c -0.26391,-1.79354 -2.13285,-2.77524 -10.73368,-5.63805 -8.31986,-2.76928 -10.7806,-3.23751 -12.23643,-2.32832 -2.64158,1.64969 -2.65137,1.60903 -0.92595,-3.84858 1.59536,-5.04624 3.07651,-6.56305 3.07651,-3.15058 0,2.78917 21.28895,9.96751 23.69144,7.98843 1.46762,-1.20897 1.56936,-1.06636 0.96645,1.35467 -0.93921,3.77145 -2.52038,7.7941 -3.06359,7.7941 -0.25036,0 -0.599,-0.97725 -0.77475,-2.17167 z m 3.93045,-15.62279 c -3.38876,-0.41698 -3.5839,-1.95814 -0.35068,-2.76963 1.57573,-0.39548 2.57519,-1.5176 2.91169,-3.26905 0.28181,-1.46677 0.33496,-2.84652 0.1181,-3.06611 -0.21685,-0.21958 -5.44376,-1.25716 -11.61536,-2.30571 l -11.2211,-1.90647 -1.83358,2.30572 c -1.82638,2.29665 -1.83098,2.28606 -1.17192,-2.69429 0.75189,-5.68178 2.33183,-9.49495 2.38244,-5.75 0.0167,1.2375 0.14291,2.26004 0.28041,2.27231 0.1375,0.0123 5.42083,0.87188 11.74073,1.91024 6.31991,1.03836 11.83241,1.67676 12.25,1.41867 1.69482,-1.04746 0.70491,-6.1452 -1.49073,-7.6768 -2.24641,-1.56701 -2.24481,-1.5696 1,-1.62197 2.89225,-0.0467 3.24965,0.25026 3.24681,2.69755 -0.003,2.50317 -2.91433,20.69629 -3.32297,20.76479 -0.0956,0.016 -1.41134,-0.12313 -2.92384,-0.30925 z M 183.60706,542.77069 c -3.69807,-4.70133 -2.56092,-11.97941 1.97573,-12.64525 3.5644,-0.52314 3.83093,0.92578 0.40958,2.22658 -4.67647,1.77799 -2.68243,10.75953 2.18085,9.82295 0.9773,-0.18822 3.50077,-2.94725 5.6077,-6.1312 4.57337,-6.91119 7.32963,-8.50676 11.62294,-6.72841 3.6895,1.52824 5.41999,6.11151 4.49397,11.90249 -0.59685,3.73253 -0.94011,4.13417 -3.53327,4.13417 -3.53345,0 -3.7826,-1.7334 -0.37219,-2.58936 2.98677,-0.74963 3.41514,-4.65908 0.90344,-8.24503 -2.51589,-3.59194 -5.30671,-2.36535 -9.86189,4.33439 -3.5784,5.26309 -4.52359,6.03728 -7.69581,6.30353 -2.93388,0.24624 -4.01545,-0.20383 -5.73105,-2.38486 z m 255.88531,-7.04111 c 0,-3.83904 0.23623,-4.42639 1.39387,-3.46564 1.06874,0.88697 2.36324,0.76895 5.54955,-0.50596 4.09787,-1.63964 4.15151,-1.72559 3.85613,-6.17909 -0.29258,-4.41129 -0.4042,-4.54749 -4.79955,-5.85641 -2.475,-0.73706 -4.6125,-1.34693 -4.75,-1.35528 -0.1375,-0.008 -0.25,0.65982 -0.25,1.48482 0,0.825 -0.45,1.5 -1,1.5 -0.55,0 -0.98999,-2.1375 -0.97776,-4.75 0.0218,-4.65733 0.0559,-4.70842 1.75,-2.61869 1.07197,1.32236 6.56438,3.78949 14.47052,6.5 7.00852,2.40278 12.74602,4.88241 12.75,5.51028 0.006,1.00701 -22.88746,11.35841 -25.121,11.35841 -0.47947,0 -0.87176,0.675 -0.87176,1.5 0,0.825 -0.45,1.5 -1,1.5 -0.55,0 -1,-2.0801 -1,-4.62244 z m 22,-10.46139 c 0,-0.634 -6.93846,-2.91617 -8.86602,-2.91617 -1.12295,0 -1.626,5.17464 -0.60254,6.1981 0.63749,0.63749 9.46856,-2.42348 9.46856,-3.28193 z m -279.31801,-8.91617 c 0.35567,-1.925 0.94955,-4.625 1.31974,-6 0.64882,-2.40997 0.69784,-2.42372 1.36123,-0.38177 0.56109,1.72706 2.20695,2.41971 8.9126,3.75078 4.52344,0.8979 9.3922,1.63219 10.81945,1.63177 3.12895,-9.4e-4 5.45217,-2.41558 6.33706,-6.58645 1.12359,-5.29599 -1.4492,-7.16798 -12.8717,-9.3656 -9.29364,-1.78803 -10.02273,-1.80302 -11.2182,-0.23052 -1.15794,1.52313 -1.28156,1.52848 -1.31037,0.0568 -0.0175,-0.89375 0.24945,-3.03125 0.5932,-4.75 0.67223,-3.36115 2.375,-4.29921 2.375,-1.30839 0,1.50488 1.66216,2.12966 9.68647,3.64101 11.90064,2.24144 14.31353,4.11137 14.31353,11.09263 0,5.42507 -2.51119,10.28896 -5.72908,11.0966 -1.23708,0.31049 -6.7653,-0.22875 -12.28494,-1.1983 -9.79434,-1.72042 -10.07075,-1.71695 -11.49318,0.14432 -1.33948,1.75273 -1.40512,1.62376 -0.81081,-1.59287 z m 253.04318,-14.15391 c -2.17071,-7.11408 -2.15631,-7.54624 0.18098,-5.43103 1.81056,1.63854 2.40533,1.5909 11.86098,-0.95008 12.54509,-3.37118 12.72663,-3.48303 11.52226,-7.09933 -0.68516,-2.05727 -1.77739,-3.01268 -3.87189,-3.38685 -3.10308,-0.55436 -2.55427,-1.3122 1.68128,-2.32164 2.56223,-0.61064 2.6403,-0.46137 5.55027,10.61174 l 2.95149,11.2311 -2.90993,0.80701 c -3.75528,1.04145 -4.5249,0.2105 -1.88204,-2.03201 1.54082,-1.30741 1.94257,-2.49943 1.52508,-4.525 -0.31174,-1.5125 -0.98872,-2.75 -1.50439,-2.75 -0.7646,0 -14.01761,3.52923 -21.01745,5.59687 -0.9285,0.27427 -1.83967,1.71467 -2.02482,3.2009 -0.27747,2.22726 -0.63987,1.70845 -2.06182,-2.95168 z M 215.38155,491.47629 c -0.3185,-1.94428 -2.27357,-3.19953 -10.76528,-6.9118 -8.60199,-3.76049 -10.69649,-4.33597 -12.25,-3.36579 -2.4388,1.52306 -2.39618,1.26128 1.02201,-6.27738 4.46909,-9.85637 10.24249,-12.02269 15.21023,-5.70724 2.03489,2.58694 2.10909,4.76925 0.36398,10.70504 -0.49717,1.69106 0.13287,2.40106 3.46337,3.90291 3.92763,1.77111 4.1415,1.7721 6.06881,0.0279 2.53536,-2.29447 2.44581,-1.2392 -0.42449,5.00208 -1.96663,4.2763 -2.35578,4.65614 -2.68863,2.62427 z m -7.34357,-14.33195 c 0.58928,-2.68296 0.2775,-3.54772 -1.97882,-5.48853 -3.19048,-2.74433 -6.68126,-2.96448 -8.78132,-0.55379 -3.16419,3.63224 -2.73591,4.6514 3.09523,7.3655 3.09062,1.43853 5.92218,2.44587 6.29236,2.23854 0.37019,-0.20734 0.98784,-1.81011 1.37255,-3.56172 z m 220.1396,5.67375 c -2.09184,-4.38663 -2.21983,-6.15465 -0.33213,-4.588 1.03745,0.861 3.82209,0.0148 11.9372,-3.62755 8.91558,-4.00163 10.64202,-5.14463 10.95145,-7.25052 0.32473,-2.21005 0.62197,-1.93948 2.5628,2.3329 2.67066,5.87896 2.67745,5.99541 0.27432,4.7093 -2.73286,-1.46258 -22.07885,7.39535 -22.07885,10.10923 0,2.91739 -1.47832,2.16576 -3.31479,-1.68536 z M 225.49237,469.25077 c 0,-3.50909 -17.38269,-16.29949 -20.14359,-14.8219 -3.00561,1.60855 -2.16603,-0.29104 2.92875,-6.62645 5.32857,-6.62614 8.36094,-7.77218 12.24436,-4.62758 1.76028,1.42539 2.34749,2.86024 2.27126,5.5498 l -0.10283,3.62738 6.96677,0 c 3.83172,0 7.83718,-0.46583 8.90102,-1.03518 2.43191,-1.30152 2.42802,-0.13645 -0.009,2.78518 -1.67933,2.01303 -2.78171,2.25 -10.46673,2.25 -4.72434,0 -8.5801,0.3375 -8.56836,0.75 0.0117,0.4125 1.79049,2.00141 3.95277,3.53091 3.02858,2.14227 4.56509,2.62186 6.69069,2.08837 l 2.75927,-0.69253 -3.40493,4.41162 c -1.87271,2.4264 -3.54313,4.59913 -3.71204,4.8283 -0.16921,0.22916 -0.30741,-0.6789 -0.30741,-2.01792 z m -6.2,-14.09875 c 1.71585,-1.71585 1.4809,-5.83213 -0.45499,-7.97126 -2.30946,-2.55192 -6.75507,-2.34983 -8.5741,0.38976 -1.39163,2.09592 -1.24642,2.39699 2.62803,5.44856 4.7111,3.71052 4.79539,3.73861 6.40106,2.13294 z m 202.55706,13.71189 c 1.71012,-4.45648 7.83732,-25.64976 7.50794,-25.96907 -0.20075,-0.19462 -3.74,2.13494 -7.865,5.17679 -6.29044,4.63869 -7.46682,5.95396 -7.29428,8.15552 0.20346,2.59615 0.17367,2.58658 -2.7231,-0.87513 -1.61085,-1.925 -2.94092,-3.8375 -2.95572,-4.25 -0.04,-1.11376 1.7574,-0.90802 2.4951,0.2856 0.38469,0.62244 2.70224,-0.45096 5.80902,-2.6905 2.84294,-2.04936 7.08148,-5.02226 9.41898,-6.60645 3.20635,-2.17303 4.25546,-3.53825 4.27224,-5.5595 l 0.0222,-2.67915 1.95553,2.5 c 2.57037,3.28603 2.53365,3.70448 -1.42601,16.25 -1.86612,5.9125 -3.05079,10.75 -2.6326,10.75 0.41819,0 3.714,-2.23597 7.32401,-4.96882 5.48544,-4.15259 6.47164,-5.34356 6.00348,-7.25 -0.57274,-2.33231 -0.27829,-2.04093 5.08484,5.0317 0.78527,1.03559 0.43361,1.17185 -1.66498,0.64513 -2.22438,-0.55828 -4.15948,0.42831 -11.80423,6.01824 -10.49797,7.67624 -12.57415,8.7633 -11.52745,6.03564 z M 242.19474,447.38217 c 0.37125,-1.41967 -1.54018,-4.36035 -6.84362,-10.52872 -6.42281,-7.47028 -7.67672,-8.48283 -9.85875,-7.96103 -2.01684,0.48229 -1.43704,-0.39342 3,-4.53112 3.025,-2.82093 6.54165,-5.84788 7.81477,-6.72657 2.17091,-1.49832 2.45059,-1.45915 4.5,0.63008 l 2.18523,2.22768 -3.50103,-0.63482 c -3.02888,-0.54921 -3.90018,-0.21821 -6.46068,2.45438 l -2.95964,3.08921 3.96678,3.96678 3.96679,3.96679 2.83017,-2.43189 c 2.20334,-1.89328 2.67401,-2.9434 2.12512,-4.74141 -0.66151,-2.16692 -0.51249,-2.12818 2.41373,0.62758 3.57789,3.36947 3.9536,4.59399 1.18762,3.87067 -2.01974,-0.52818 -7.01344,2.4643 -6.99581,4.19224 0.006,0.55 1.53934,2.73109 3.40829,4.84687 l 3.39809,3.84687 3.64669,-2.78146 c 2.98181,-2.27433 3.57135,-3.29479 3.23348,-5.59687 -0.4947,-3.3706 0.70984,-3.67529 2.35762,-0.59637 1.08941,2.03557 0.61692,2.73761 -5.71481,8.49125 -3.79633,3.44972 -7.19778,6.27616 -7.55879,6.28097 -0.36101,0.005 -0.42457,-0.87769 -0.14125,-1.96111 z m 156.12319,-4.92582 c -5.91918,-3.75383 -7.82556,-6.59894 -7.82556,-11.67895 0,-7.49935 7.66049,-15.42915 14.89788,-15.42164 3.64377,0.004 8.73666,2.49059 12.85212,6.27557 2.75185,2.53087 2.77709,3.5181 0.17178,6.72069 l -2.03375,2.5 0.58337,-4 c 0.53907,-3.69623 0.32978,-4.17087 -2.75589,-6.25 -6.81329,-4.5908 -15.28771,-1.73201 -18.86964,6.36554 -1.21739,2.7521 -1.77673,5.5238 -1.40978,6.98584 0.58449,2.32882 6.07511,8.39862 7.59721,8.39862 1.52859,0 4.05314,-5.1523 3.45223,-7.04558 -0.89468,-2.81888 0.46877,-2.36396 5.01447,1.6731 3.77136,3.34936 3.84493,3.51814 1.28713,2.95272 -2.21817,-0.49035 -3.11863,-0.0509 -4.93806,2.41003 -1.22385,1.65535 -2.50246,3.00973 -2.84135,3.00973 -0.33889,0 -2.67086,-1.30305 -5.18216,-2.89567 z m -137.82556,-9.91733 c 0,-0.43285 0.45757,-1.24457 1.01683,-1.80383 0.6891,-0.6891 -0.60732,-4.46002 -4.02241,-11.7 -4.15477,-8.80811 -5.43021,-10.69093 -7.26683,-10.72737 -1.80598,-0.0358 -1.50465,-0.42565 1.59209,-2.05963 l 3.81968,-2.01545 8.43032,7.65363 8.43032,7.65363 -0.0711,-3.34399 c -0.0391,-1.83919 -0.39391,-6.89601 -0.7884,-11.23737 l -0.71726,-7.89337 3.0384,-1.85289 c 3.90588,-2.38189 4.86089,-2.34959 3.32336,0.11238 -1.05876,1.69535 -0.53826,3.38271 3.70164,12 4.72566,9.60456 5.43313,10.46943 8.26341,10.10191 2.529,-0.32841 1.12264,0.9562 -3.75,3.42535 -4.63883,2.35067 -6.39671,2.29671 -3.97789,-0.12211 0.69616,-0.69616 -0.41001,-4.02876 -3.4686,-10.45 l -4.49071,-9.42789 0.54778,11.5 c 0.30128,6.325 0.72302,12.0625 0.93721,12.75 0.21419,0.6875 0.10755,1.25 -0.23698,1.25 -0.67898,0 -16.34025,-13.82314 -17.5455,-15.48623 -2.13393,-2.94455 -0.28974,2.47648 3.21132,9.43975 3.30827,6.57983 4.42351,7.96269 6.63552,8.2278 2.4632,0.29523 2.31772,0.48332 -1.97663,2.55568 -2.54954,1.23036 -4.63552,1.88285 -4.63552,1.45 z m 115,-5.687 c -3.87373,-2.07428 -4.15207,-2.41853 -2,-2.47359 2.15411,-0.0551 3.2348,-1.52434 7.81097,-10.61925 4.23867,-8.42415 5.07204,-10.8432 4.12756,-11.98123 -1.68616,-2.03169 -0.11654,-1.69861 5.06147,1.07407 3.86932,2.07191 4.14962,2.418 2,2.46936 -2.13817,0.0511 -3.28842,1.5642 -7.94749,10.45476 -4.64915,8.87163 -5.25405,10.62812 -4.12755,11.98546 1.82028,2.19331 0.36924,1.92532 -4.92496,-0.90958 z m -27,-9.81035 c -6.88562,-1.95881 -7.28234,-2.21046 -4.84293,-3.07198 1.65181,-0.58337 2.87636,-1.91814 3.23668,-3.52803 0.31879,-1.4243 1.66097,-6.31963 2.98264,-10.8785 2.10761,-7.2699 2.2234,-8.46849 0.94189,-9.75 -1.99811,-1.99811 -0.47683,-1.89086 7.69351,0.54237 3.70008,1.10193 7.87852,2.90897 9.28543,4.01564 3.74288,2.94415 5.20121,8.13643 3.7402,13.31677 -1.47457,5.22845 -2.69253,6.87431 -7.0551,9.53376 -4.23792,2.58346 -6.35177,2.55965 -15.98232,-0.18003 z m 13.12824,-1.25597 c 3.33658,-1.72541 6.81416,-8.19001 6.8498,-12.73334 0.0387,-4.93114 -2.51494,-8.35454 -7.49856,-10.05263 -3.456,-1.17758 -4.67676,-1.26411 -4.98705,-0.35349 -0.22597,0.66318 -1.61522,5.48078 -3.08722,10.70578 -1.472,5.225 -2.87965,10.03945 -3.12812,10.69878 -0.25971,0.68917 0.96697,1.60732 2.88558,2.15981 4.75081,1.36807 5.57377,1.32906 8.96557,-0.42491 z m -69.13074,0.62321 c 0.82362,-0.53947 3.75689,-7.17441 6.51839,-14.74433 l 5.02089,-13.76349 3.98161,-0.64317 c 12.8815,-2.08081 12.21156,-2.118 12.9232,0.7174 0.88005,3.5064 -0.13038,4.26603 -2.04276,1.53572 -1.30773,-1.86705 -2.13939,-2.11478 -5.227,-1.55701 -2.01951,0.36482 -3.82144,0.79073 -4.00431,0.94646 -0.18286,0.15573 -0.0185,2.79603 0.36523,5.86734 0.57871,4.63184 1.03035,5.58419 2.64821,5.58419 2.84358,0 5.81904,-1.83783 5.81904,-3.5942 0,-0.83811 0.45,-1.24572 1,-0.9058 0.55,0.33992 0.98569,2.50398 0.9682,4.80902 -0.0281,3.69924 -0.18768,3.98565 -1.36025,2.44098 -0.79015,-1.0409 -2.65735,-1.75 -4.6081,-1.75 l -3.27966,0 0.57852,5.60528 c 0.31818,3.0829 0.72725,5.75402 0.90904,5.93581 0.1818,0.18179 2.19933,0.0799 4.4834,-0.22649 3.30817,-0.44372 4.27432,-1.04087 4.74992,-2.93581 0.83686,-3.33432 2.55893,-2.96974 2.55893,0.54176 0,3.17957 -0.44284,3.37466 -10.5,4.62563 -2.75,0.34207 -5.9,0.86892 -7,1.17078 -1.91977,0.52683 -1.92965,0.46998 -0.24623,-1.41697 1.37913,-1.54587 1.61712,-2.9628 1.11408,-6.6329 -0.53839,-3.92798 -0.98382,-4.66709 -2.81264,-4.66709 -3.02158,0 -5.10426,1.91155 -6.42736,5.89922 -1.51419,4.56361 -1.42042,6.10078 0.37215,6.10078 0.825,0 1.5,0.36591 1.5,0.81314 0,0.44722 -2.1375,0.90571 -4.75,1.01886 -3.40198,0.14735 -4.32502,-0.0726 -3.2525,-0.77511 z m 12.42071,-14.66388 c 1.09409,-0.41984 1.57707,-1.88438 1.56648,-4.75 -0.0249,-6.74184 -1.4139,-7.29507 -3.29924,-1.31408 -2.27793,7.22643 -2.18093,7.56591 1.73276,6.06408 z"
       id="path2996"
       inkscape:connector-curvature="0" />
  </g>
</svg>
